<svg xmlns="http://www.w3.org/2000/svg" width="1536" height="864" viewBox="0 0 1536 864" version="1.1"><path d="M 995 11.683 C 1006.218 14.184, 1026.127 20.851, 1036.515 25.586 C 1048.930 31.244, 1051 32.081, 1051 31.443 C 1051 30.965, 1044.887 28.031, 1033.500 23.043 C 1020.832 17.494, 995.025 9.788, 990.211 10.117 C 989.270 10.181, 991.425 10.886, 995 11.683 M 897.102 16.578 C 883.009 21.327, 865.183 29.437, 854.283 36.059 C 850.715 38.226, 847.592 40, 847.343 40 C 844.685 40, 803.849 71.624, 789.500 84.795 C 778.324 95.053, 760.641 113.403, 744.492 131.500 C 731.787 145.738, 732.239 145.391, 729.087 143.301 C 721.419 138.216, 709.287 131.834, 701.417 128.745 C 691.825 124.981, 675.447 119.969, 673 120.049 C 672.175 120.076, 676.503 121.574, 682.618 123.379 C 700.576 128.679, 711.395 133.421, 724.068 141.543 C 727.892 143.995, 731.449 146, 731.974 146 C 732.498 146, 737.781 140.499, 743.714 133.776 C 758.836 116.639, 785.640 89.368, 797.500 79.054 C 810.963 67.346, 838.537 46.590, 849 40.288 C 858.609 34.500, 876.763 25.258, 885 21.960 C 891.869 19.210, 908.064 14, 909.745 14 C 910.435 14, 911 13.550, 911 13 C 911 11.758, 912.728 11.313, 897.102 16.578 M 1063.001 38.693 C 1063.002 39.137, 1065.139 40.722, 1067.751 42.215 C 1075.916 46.883, 1088.637 57.644, 1095.551 65.733 C 1111.012 83.820, 1116.500 100.740, 1113.802 122 C 1113.221 126.576, 1113.285 126.996, 1114.181 124.500 C 1114.773 122.850, 1115.273 116.775, 1115.292 111 C 1115.322 102.139, 1114.902 99.251, 1112.605 92.500 C 1108.820 81.378, 1102.882 71.936, 1093.504 62.131 C 1083.767 51.950, 1062.998 35.991, 1063.001 38.693 M 598.661 113.750 C 598.410 114.162, 608.396 114.506, 620.852 114.513 C 633.308 114.520, 641.025 114.227, 638 113.862 C 630.283 112.930, 599.214 112.842, 598.661 113.750 M 575.500 116.516 C 574.950 116.712, 571.800 117.417, 568.500 118.081 C 565.200 118.745, 562.950 119.441, 563.500 119.627 C 564.050 119.814, 568.550 119.117, 573.500 118.079 C 578.450 117.041, 581.150 116.184, 579.500 116.175 C 577.850 116.166, 576.050 116.319, 575.500 116.516 M 657 117.463 C 668.955 119.740, 671.561 119.942, 664.500 118.044 C 660.650 117.010, 655.925 116.177, 654 116.194 C 651.531 116.215, 652.415 116.589, 657 117.463 M 547.257 123.375 C 541.073 125.178, 535.673 127.028, 535.257 127.486 C 534.841 127.944, 535.175 128.080, 536 127.788 C 536.825 127.497, 542 126.027, 547.500 124.524 C 561.229 120.770, 563.015 120.166, 560.500 120.127 C 559.400 120.110, 553.441 121.571, 547.257 123.375 M 912.500 126.892 C 910.300 127.226, 915.484 127.500, 924.020 127.500 C 938.707 127.500, 939.808 127.637, 944.520 130.059 C 947.259 131.467, 950.550 134.167, 951.833 136.059 C 953.920 139.139, 954.117 140.340, 953.705 147.500 C 953.452 151.900, 952.958 156.625, 952.608 158 C 952.258 159.375, 952.619 158.925, 953.410 157 C 955.335 152.314, 955.409 140.691, 953.536 137.069 C 951.348 132.838, 946.528 129.234, 940.771 127.525 C 935.590 125.986, 920.658 125.652, 912.500 126.892 M 523 131.566 C 518.325 133.509, 512.831 135.725, 510.791 136.491 C 505.572 138.449, 480.063 151.291, 471.762 156.139 C 463.716 160.838, 430.685 185.474, 427 189.523 C 425.625 191.035, 422.703 193.590, 420.508 195.202 C 413.620 200.260, 393.761 222.206, 382.800 236.873 C 372.263 250.972, 354.737 283.134, 359.040 280.475 C 359.568 280.149, 360 279.437, 360 278.894 C 360 276.947, 369.928 258.093, 375.512 249.438 C 378.643 244.584, 383.857 237.129, 387.098 232.871 C 393.751 224.132, 415.472 199.972, 417.906 198.604 C 418.783 198.112, 422.200 195.166, 425.500 192.059 C 433.134 184.871, 464.310 161.650, 473.500 156.306 C 485.429 149.370, 504.555 140.145, 519.853 133.948 C 527.909 130.685, 533.825 128.020, 533 128.025 C 532.175 128.030, 527.675 129.623, 523 131.566 M 1111.454 130.500 C 1110.227 135.140, 1102.637 151.826, 1097.762 160.598 C 1088.464 177.329, 1079.509 190.622, 1063.301 211.750 C 1058.133 218.488, 1054.263 223.987, 1054.702 223.972 C 1055.579 223.942, 1077.361 195.081, 1083.761 185.469 C 1090.183 175.825, 1098.778 161.391, 1102.499 154.001 C 1107.604 143.866, 1113.174 130.004, 1112.680 128.670 C 1112.442 128.026, 1111.890 128.850, 1111.454 130.500 M 890.321 131.346 C 885.822 132.531, 881.849 133.798, 881.492 134.163 C 881.134 134.527, 882.565 134.402, 884.671 133.884 C 886.777 133.367, 890.862 132.413, 893.750 131.765 C 896.638 131.117, 899 130.230, 899 129.794 C 899 129.357, 898.888 129.043, 898.750 129.096 C 898.612 129.148, 894.819 130.161, 890.321 131.346 M 878.500 134.524 C 877.950 134.726, 873.526 136.079, 868.669 137.531 C 863.811 138.983, 860.031 140.364, 860.267 140.600 C 860.817 141.150, 878.187 135.920, 879.450 134.824 C 880.435 133.970, 880.208 133.898, 878.500 134.524 M 838.500 147.126 C 824.384 152.214, 821.872 153.205, 822.217 153.550 C 822.588 153.922, 848.111 145.222, 848.866 144.467 C 849.921 143.413, 846.045 144.407, 838.500 147.126 M 813 156.173 C 804.344 159.389, 798.006 161.689, 791.226 164.077 C 787.775 165.291, 785.134 166.468, 785.357 166.691 C 785.733 167.067, 819.992 155.199, 820.917 154.372 C 821.991 153.412, 817.970 154.327, 813 156.173 M 949.583 165.590 C 948.587 168.291, 939.294 186.957, 928.932 207.071 C 909.308 245.165, 898.673 267.007, 899.397 267.731 C 899.631 267.964, 901.989 263.507, 904.638 257.827 C 907.287 252.147, 914.082 238.500, 919.738 227.500 C 940.976 186.197, 952.233 163.200, 951.820 161.961 C 951.586 161.257, 950.579 162.890, 949.583 165.590 M 769.530 186.500 C 780.769 204.389, 787.574 219.631, 792.011 236.851 C 792.627 239.244, 793.359 240.975, 793.637 240.697 C 794.416 239.918, 790.339 226.640, 785.795 215.153 C 781.861 205.207, 772.462 188.120, 769.209 185 C 768.142 183.977, 768.244 184.454, 769.530 186.500 M 1045.710 234.250 C 1041.569 239.338, 1036.147 246.042, 1033.661 249.149 C 1003.010 287.458, 999.569 291.486, 982.105 309.500 C 976.240 315.550, 969.387 322.975, 966.877 326 C 958.829 335.698, 940.301 363.635, 941.273 364.606 C 941.486 364.819, 944.653 360.157, 948.311 354.246 C 958.656 337.533, 968.282 325.370, 985.050 307.823 C 993.547 298.931, 1005.465 285.545, 1011.534 278.077 C 1020.586 266.940, 1049.549 230.966, 1053.261 226.250 C 1053.802 225.563, 1054.018 225, 1053.742 225 C 1053.465 225, 1049.850 229.162, 1045.710 234.250 M 794.130 244.500 C 794.106 245.600, 794.725 249.200, 795.505 252.500 L 796.923 258.500 796.360 253.193 C 795.718 247.147, 794.199 241.224, 794.130 244.500 M 798.415 286 C 798.415 296.175, 798.564 300.337, 798.745 295.250 C 798.927 290.162, 798.927 281.837, 798.745 276.750 C 798.564 271.662, 798.415 275.825, 798.415 286 M 890.735 287.225 C 885.755 300.242, 882.822 309.156, 883.347 309.681 C 883.593 309.927, 884.807 307.062, 886.044 303.314 C 887.281 299.566, 889.812 292.498, 891.669 287.606 C 893.526 282.714, 894.873 278.540, 894.664 278.331 C 894.455 278.121, 892.687 282.124, 890.735 287.225 M 354.565 290.565 C 353.035 295.268, 351.968 299.301, 352.195 299.528 C 352.422 299.755, 353.860 296.093, 355.391 291.391 C 356.923 286.689, 357.989 282.656, 357.762 282.428 C 357.534 282.201, 356.096 285.862, 354.565 290.565 M 1147.500 308.615 C 1135.062 311.702, 1126.423 315.595, 1115 323.261 C 1101.083 332.601, 1093.289 339.820, 1079.118 356.500 C 1069.436 367.896, 1061.675 378.009, 1062.659 377.949 C 1063.121 377.921, 1067.325 372.878, 1072 366.742 C 1089.222 344.138, 1110.270 325.516, 1128.755 316.529 C 1140.546 310.796, 1145.607 309.497, 1156 309.535 C 1163.947 309.564, 1166.236 309.950, 1170 311.897 C 1188.456 321.444, 1200.116 339.888, 1205.484 368.025 L 1206.910 375.500 1206.328 369.002 C 1204.732 351.183, 1194.790 330.407, 1182.474 319.150 C 1174.220 311.606, 1167.472 308.682, 1157.608 308.372 C 1153.149 308.233, 1148.600 308.342, 1147.500 308.615 M 879.538 322.208 C 878.047 328.419, 876.617 334.161, 876.361 334.970 C 876.104 335.778, 876.228 336.105, 876.637 335.696 C 877.546 334.787, 883.192 311.859, 882.643 311.309 C 882.427 311.093, 881.030 315.998, 879.538 322.208 M 347.152 322.237 C 346.517 326.782, 346.077 333.200, 346.173 336.500 C 346.321 341.529, 346.400 341.772, 346.664 338 C 346.837 335.525, 347.471 329.300, 348.072 324.166 C 349.435 312.534, 348.718 311.030, 347.152 322.237 M 795.051 322.581 C 794.379 326.750, 794.038 330.371, 794.294 330.628 C 794.771 331.104, 795.392 328.129, 796.563 319.750 C 797.649 311.980, 796.377 314.362, 795.051 322.581 M 790.521 343.737 C 788.987 349.657, 786.194 358.938, 784.313 364.363 C 782.432 369.788, 781.095 374.428, 781.342 374.676 C 781.590 374.923, 783.619 369.585, 785.853 362.813 C 790.187 349.669, 794.359 334.026, 793.705 333.372 C 793.487 333.153, 792.054 337.818, 790.521 343.737 M 875.676 339.203 C 874.746 342.987, 873.689 352.538, 874.259 352 C 874.911 351.385, 877.065 337.731, 876.585 337.252 C 876.395 337.062, 875.986 337.940, 875.676 339.203 M 375.909 346.909 C 378.441 349.441, 378.118 347.470, 378.952 365.500 L 379.646 380.500 379.742 367.500 C 379.850 352.965, 378.524 345.712, 375.659 345.168 C 373.989 344.851, 374.012 345.012, 375.909 346.909 M 872.422 383 C 872.422 394.275, 872.568 398.887, 872.746 393.250 C 872.924 387.613, 872.924 378.387, 872.746 372.750 C 872.568 367.113, 872.422 371.725, 872.422 383 M 937.048 372.250 C 930.507 386.714, 927.351 404.339, 929.751 413 C 930.508 415.731, 930.621 414.633, 930.265 408 C 929.601 395.647, 931.507 387.647, 939.378 369.750 C 940.285 367.688, 940.768 366, 940.451 366 C 940.134 366, 938.603 368.813, 937.048 372.250 M 779.130 378.111 C 775.574 387.283, 773.649 391.753, 770.950 397.099 C 769.255 400.456, 768.087 403.420, 768.354 403.687 C 768.993 404.327, 769.822 402.678, 775.922 388.622 C 778.757 382.088, 780.847 376.514, 780.566 376.233 C 780.286 375.952, 779.639 376.798, 779.130 378.111 M 1206.816 387.002 C 1206.642 392.503, 1206.838 397.003, 1207.250 397.002 C 1207.662 397.001, 1208 392.500, 1208 387 C 1208 381.500, 1207.805 377, 1207.566 377 C 1207.328 377, 1206.990 381.501, 1206.816 387.002 M 1054.656 388.250 C 1039.486 410.035, 1014.788 453.995, 1012.433 463.401 L 1011.707 466.303 1016.103 465.713 C 1021.923 464.932, 1038.372 456.615, 1060.601 443.213 C 1070.557 437.210, 1080.186 431.782, 1082 431.150 C 1089.675 428.474, 1099.476 430.501, 1104.048 435.707 C 1105.672 437.557, 1107 438.657, 1107 438.153 C 1107 436.163, 1100.361 430.905, 1096.542 429.871 C 1094.319 429.270, 1089.915 429.010, 1086.755 429.293 C 1081.615 429.755, 1078.955 431.037, 1061.474 441.478 C 1038.015 455.488, 1021.880 463.837, 1016.635 464.679 C 1012.917 465.275, 1012.798 465.208, 1013.503 462.899 C 1016.207 454.047, 1037.348 416.352, 1051.864 394.500 C 1062.721 378.157, 1062.191 379, 1061.599 379 C 1061.323 379, 1058.199 383.163, 1054.656 388.250 M 328.611 396.821 C 326.889 399.606, 336.591 407.539, 344 409.403 C 345.375 409.748, 344.250 408.971, 341.500 407.674 C 332.410 403.388, 327.459 397.811, 331.750 396.689 C 333.101 396.336, 333.001 396.206, 331.309 396.116 C 330.104 396.052, 328.890 396.369, 328.611 396.821 M 334.010 396.838 C 334.028 398.051, 350.948 403.386, 351.865 402.468 C 352.097 402.237, 351.659 401.890, 350.893 401.698 C 350.127 401.506, 346.012 400.185, 341.750 398.763 C 337.488 397.340, 334.004 396.475, 334.010 396.838 M 761.554 415.751 C 747.572 441.749, 733.677 461.805, 717.041 480 C 703.329 494.998, 695 504.569, 695 505.330 C 695 505.964, 712.825 486.519, 725.822 471.705 C 732.698 463.868, 742.074 450.465, 752.197 434 C 759.910 421.456, 768.324 405.990, 767.748 405.415 C 767.521 405.188, 764.734 409.839, 761.554 415.751 M 1204.178 415.840 C 1203.458 420.428, 1201.528 428.695, 1199.889 434.212 C 1198.250 439.729, 1197.089 444.422, 1197.309 444.642 C 1198.631 445.965, 1206.412 413.836, 1205.793 409.604 C 1205.624 408.447, 1204.897 411.253, 1204.178 415.840 M 363 414 C 365.475 414.509, 369.015 415.198, 370.867 415.530 C 374.180 416.125, 374.224 416.200, 373.583 420.207 C 372.071 429.663, 363.123 445.202, 351.540 458.486 C 341.602 469.885, 340.972 472.210, 347.500 473.410 C 350.460 473.955, 350.456 473.947, 347.250 472.836 C 342.173 471.078, 342.386 470.612, 354.986 455.886 C 365.232 443.910, 373.364 428.919, 374.632 419.667 C 375.322 414.636, 375.211 414.570, 364.500 413.611 C 358.906 413.110, 358.805 413.136, 363 414 M 932.001 422.504 C 933.043 425.531, 935.496 431.043, 937.452 434.754 C 941.226 441.911, 951.958 456.973, 953.295 456.990 C 953.733 456.995, 951.860 454.243, 949.133 450.873 C 942.685 442.903, 935.381 429.999, 933.217 422.751 C 932.272 419.590, 931.187 417.002, 930.804 417.001 C 930.421 417.001, 930.960 419.477, 932.001 422.504 M 876.516 431.773 C 877.267 438.001, 879.245 446.663, 879.652 445.498 C 879.844 444.947, 879.101 440.672, 878.001 435.998 C 876.901 431.324, 876.233 429.423, 876.516 431.773 M 1107.500 450.068 C 1107.500 455.495, 1107.806 459.163, 1108.180 458.218 C 1109.116 455.851, 1109.175 441.225, 1108.250 440.659 C 1107.838 440.407, 1107.500 444.641, 1107.500 450.068 M 1193.975 451.714 C 1191.118 458.947, 1180.031 480.863, 1178.865 481.583 C 1178.389 481.877, 1178 482.631, 1178 483.259 C 1178 485.216, 1179.660 482.888, 1184.446 474.221 C 1189.531 465.011, 1197.430 447.097, 1196.719 446.386 C 1196.467 446.134, 1195.233 448.532, 1193.975 451.714 M 880.081 448.153 C 879.961 450.604, 886.657 469.330, 890.744 477.971 C 896.255 489.624, 903.332 499.358, 914.378 510.480 C 932.637 528.866, 943.627 537.330, 959.500 545.231 C 967.912 549.419, 980.033 554.301, 980.603 553.731 C 980.828 553.505, 977.747 552.054, 973.756 550.505 C 962.741 546.231, 948.890 538.734, 940.255 532.373 C 930.393 525.107, 908.107 503.340, 902.503 495.500 C 893.971 483.565, 888.161 471.419, 882.409 453.500 C 881.174 449.650, 880.126 447.244, 880.081 448.153 M 956.816 461.500 C 958.479 463.700, 962.013 467.574, 964.670 470.109 C 970.988 476.138, 994.789 496, 995.696 496 C 996.616 496, 996.769 496.136, 980.500 482.506 C 972.800 476.055, 963.641 467.789, 960.146 464.138 C 956.405 460.230, 955.036 459.145, 956.816 461.500 M 1105.069 465.244 C 1104.380 467.585, 1101.721 473.538, 1099.159 478.473 C 1090.648 494.866, 1077.510 505.225, 1061.076 508.501 C 1057.459 509.222, 1055.643 509.854, 1057.040 509.906 C 1061.229 510.061, 1070.973 507.134, 1076.919 503.934 C 1086.829 498.600, 1094.478 490.115, 1100.747 477.500 C 1104.905 469.134, 1107.508 462.175, 1106.760 461.427 C 1106.518 461.185, 1105.757 462.903, 1105.069 465.244 M 366.224 477 C 366.210 478.925, 366.540 482.975, 366.958 486 L 367.718 491.500 367.785 487 C 367.822 484.525, 367.491 480.475, 367.051 478 C 366.317 473.877, 366.248 473.793, 366.224 477 M 1175.878 486.750 C 1175.090 487.712, 1172.890 490.750, 1170.989 493.500 C 1167.070 499.170, 1166.096 500.375, 1156.784 511.079 C 1140.166 530.180, 1117.868 546.763, 1099.728 553.513 C 1097.103 554.490, 1095.195 555.528, 1095.487 555.821 C 1096.369 556.702, 1110.964 549.954, 1119.424 544.754 C 1135.284 535.004, 1155.695 515.541, 1169.864 496.656 C 1174.339 490.692, 1178 485.630, 1178 485.406 C 1178 484.584, 1177.274 485.044, 1175.878 486.750 M 367.946 495.750 C 367.903 497.906, 366.878 499.148, 363.202 501.500 C 360.554 503.194, 358.403 505.371, 358.260 506.500 C 358.020 508.402, 358.061 508.397, 359.093 506.393 C 359.690 505.234, 362.163 503.032, 364.589 501.498 C 368.123 499.265, 369 498.142, 369 495.855 C 369 492.194, 368.018 492.096, 367.946 495.750 M 997 496.402 C 997 497.497, 1009.132 503.082, 1017.777 505.968 C 1027.399 509.179, 1041.162 511.350, 1048.050 510.742 C 1052.355 510.362, 1052.321 510.344, 1047 510.171 C 1039.085 509.913, 1024.397 507.379, 1018 505.166 C 1013.663 503.666, 1003.508 499.179, 997.750 496.219 C 997.337 496.007, 997 496.089, 997 496.402 M 691.743 507.957 C 690.939 509.104, 688.735 511.720, 686.844 513.771 C 681.728 519.320, 673.745 529.730, 669.544 536.333 C 663.562 545.733, 665.988 543.729, 672.738 533.694 C 676.139 528.637, 682.361 520.534, 686.564 515.686 C 690.767 510.839, 693.980 506.647, 693.705 506.372 C 693.429 506.096, 692.547 506.809, 691.743 507.957 M 358 513.352 C 358 514.507, 359.440 515.747, 362.033 516.824 C 365.294 518.179, 365.954 518.883, 365.481 520.500 C 364.101 525.216, 363.852 529.855, 364.877 531.769 C 365.482 532.901, 368.227 534.844, 370.976 536.086 C 373.725 537.329, 376.247 539.201, 376.579 540.248 C 376.911 541.294, 377.408 541.926, 377.683 541.651 C 379.001 540.332, 376.545 537.005, 373.515 536.005 C 365.578 533.385, 362.969 528.177, 366.500 522 C 368.503 518.496, 368.423 518.295, 364.503 517.001 C 362.580 516.366, 360.330 514.881, 359.503 513.701 C 358.186 511.821, 358 511.778, 358 513.352 M 377.584 546.500 C 379.225 558.410, 381.249 562.648, 386.783 565.758 C 390.557 567.879, 391.883 568, 411.386 568 C 422.724 568, 432.001 567.663, 432.001 567.250 C 432.002 566.837, 422.889 566.626, 411.751 566.779 C 393.957 567.024, 391.078 566.842, 388.020 565.279 C 383.368 562.901, 380.340 558.107, 379.466 551.739 C 379.070 548.858, 378.361 545.600, 377.890 544.500 C 377.313 543.155, 377.213 543.810, 377.584 546.500 M 662.180 549.649 C 659.034 555.886, 652.950 572.379, 653.075 574.330 C 653.117 574.973, 654.440 571.774, 656.017 567.219 C 657.593 562.665, 660.449 555.692, 662.363 551.724 C 666.538 543.072, 666.383 541.316, 662.180 549.649 M 996.188 558.521 C 996.879 559.212, 1012.946 562.024, 1015.500 561.901 C 1016.600 561.847, 1013.225 560.981, 1008 559.975 C 997.751 558.002, 995.376 557.709, 996.188 558.521 M 531.292 563.742 C 535.027 563.935, 540.877 563.934, 544.292 563.739 C 547.706 563.545, 544.650 563.387, 537.500 563.389 C 530.350 563.390, 527.556 563.550, 531.292 563.742 M 498.250 564.739 C 501.413 564.937, 506.587 564.937, 509.750 564.739 C 512.913 564.541, 510.325 564.378, 504 564.378 C 497.675 564.378, 495.087 564.541, 498.250 564.739 M 467.250 565.742 C 470.962 565.934, 477.038 565.934, 480.750 565.742 C 484.462 565.549, 481.425 565.392, 474 565.392 C 466.575 565.392, 463.538 565.549, 467.250 565.742 M 573.500 568.500 C 580.216 571.244, 583.669 574.803, 584.658 580 C 585.025 581.925, 585.513 582.941, 585.743 582.259 C 586.536 579.904, 583.858 574.058, 580.813 571.496 C 577.480 568.692, 571.703 565.986, 569.128 566.024 C 568.233 566.037, 570.200 567.151, 573.500 568.500 M 648.622 591.250 C 648.286 592.487, 647.805 596.650, 647.554 600.500 C 647.128 607.015, 647.151 607.119, 647.890 602 C 648.326 598.975, 649 594.813, 649.387 592.750 C 650.152 588.673, 649.610 587.612, 648.622 591.250 M 581.690 620.605 C 580.748 624.947, 579.744 629.625, 579.460 631 L 578.944 633.500 579.992 631.108 C 581.492 627.687, 584.234 615.202, 583.783 613.849 C 583.574 613.222, 582.632 616.262, 581.690 620.605 M 575.526 643.727 C 570.226 662.496, 566.776 671.596, 559.951 684.805 C 542.460 718.661, 510.701 758.976, 483.500 781.852 C 478.550 786.015, 471.125 792.641, 467 796.577 C 459.754 803.490, 437.504 821.567, 421.955 833.172 C 413.559 839.439, 406.676 846.527, 407.266 848.298 C 407.715 849.645, 416 852.269, 416 851.064 C 416 850.620, 414.200 849.968, 412 849.616 C 409.800 849.264, 408 848.487, 408 847.888 C 408 846.182, 415.733 838.957, 424.500 832.471 C 458.019 807.675, 498.975 770.612, 518.396 747.500 C 540.887 720.736, 559.011 692.790, 567.429 671.893 C 571.124 662.722, 579.435 635.101, 578.716 634.382 C 578.480 634.146, 577.044 638.351, 575.526 643.727 M 647.150 638.843 C 646.982 642.589, 650.448 660.573, 652.031 664.170 C 653.056 666.499, 653.056 666.499, 652.528 664 C 650.988 656.722, 648.025 641.112, 647.687 638.500 C 647.301 635.509, 647.299 635.510, 647.150 638.843 M 653.606 670 C 654.316 673.952, 660.905 691.981, 663.408 696.822 C 666.172 702.167, 666.136 700.355, 663.357 694.250 C 661.917 691.087, 658.992 683.550, 656.858 677.500 C 654.724 671.450, 653.260 668.075, 653.606 670 M 666 701.550 C 666 704.409, 678.496 723.012, 687.255 733.193 C 696.490 743.927, 703.848 750.905, 723.695 767.752 L 739.889 781.500 736.723 784.777 C 732.021 789.642, 718.692 798.195, 704.284 805.591 C 697.266 809.194, 691.304 812.363, 691.033 812.633 C 688.951 814.716, 708.621 804.962, 719.684 798.427 C 727.725 793.676, 741 783.414, 741 781.948 C 741 781.494, 733.913 775.159, 725.250 767.871 C 697.534 744.551, 677.979 722.983, 669.666 706.565 C 667.119 701.535, 666 700.004, 666 701.550 M 678 817.617 C 672.225 820.079, 665.808 822.818, 663.740 823.703 C 661.672 824.589, 660.132 825.465, 660.317 825.650 C 660.733 826.066, 679.835 818.396, 686 815.338 C 693.473 811.630, 689.166 812.858, 678 817.617 M 649.714 828.751 C 645.982 830.132, 643.125 831.458, 643.365 831.699 C 643.832 832.165, 659 826.995, 659 826.370 C 659 825.619, 656.333 826.303, 649.714 828.751 M 633.500 834.613 C 629.650 835.969, 621.124 838.649, 614.552 840.570 C 603.494 843.802, 597.543 846.101, 604.502 844.452 C 609.811 843.195, 636.146 834.949, 639.374 833.534 C 644.393 831.333, 641.096 831.939, 633.500 834.613 M 452 855.203 C 452 855.641, 455.712 855.948, 460.250 855.884 C 469.504 855.754, 468.881 855.286, 458.750 854.758 C 455.038 854.564, 452 854.764, 452 855.203 M 525.500 855 L 517.500 855.633 525.750 855.817 C 530.706 855.927, 534 855.601, 534 855 C 534 854.450, 533.888 854.083, 533.750 854.183 C 533.612 854.284, 529.900 854.652, 525.500 855 M 476.250 856.735 C 478.863 856.941, 483.137 856.941, 485.750 856.735 C 488.363 856.529, 486.225 856.360, 481 856.360 C 475.775 856.360, 473.637 856.529, 476.250 856.735" stroke="none" fill="#db56a7" fill-rule="evenodd"/><path d="M 942.428 8.121 C 936.338 8.591, 927.122 9.845, 921.949 10.906 C 916.775 11.967, 912.195 12.621, 911.771 12.359 C 911.347 12.096, 911 12.359, 911 12.941 C 911 13.523, 910.435 14, 909.745 14 C 908.064 14, 891.869 19.210, 885 21.960 C 876.763 25.258, 858.609 34.500, 849 40.288 C 838.537 46.590, 810.963 67.346, 797.500 79.054 C 785.640 89.368, 758.836 116.639, 743.714 133.776 C 737.781 140.499, 732.498 146, 731.974 146 C 731.449 146, 727.753 143.899, 723.760 141.331 C 705.692 129.712, 683.105 121.959, 651 116.358 C 636.087 113.756, 596.845 113.756, 582.500 116.358 C 543.591 123.416, 507.005 136.825, 473.500 156.306 C 464.310 161.650, 433.134 184.871, 425.500 192.059 C 422.200 195.166, 418.783 198.112, 417.906 198.604 C 415.472 199.972, 393.751 224.132, 387.098 232.871 C 376.117 247.296, 366.653 263.242, 359.718 279 C 353.007 294.252, 347.650 318.929, 346.803 338.500 L 346.500 345.500 353.342 345.651 C 357.105 345.734, 362.505 345.502, 365.342 345.135 C 368.179 344.767, 372.075 344.699, 374 344.983 C 377.174 345.452, 377.609 345.919, 378.670 350 C 381.090 359.312, 379.240 398.160, 376.234 401.166 C 375.117 402.283, 351.703 402.961, 347.715 401.992 C 343.135 400.879, 334.555 397.618, 334.202 396.856 C 333.677 395.722, 330 397.184, 330 398.528 C 330 400.349, 335.714 404.967, 340.718 407.191 C 345.681 409.396, 357.421 412.466, 364.500 413.409 C 375.678 414.899, 375.316 414.677, 374.636 419.636 C 373.364 428.919, 365.247 443.893, 354.986 455.886 C 346.113 466.256, 344 469.063, 344 470.477 C 344 472.375, 351.034 474, 359.250 474 L 366.767 474 367.402 480.750 C 367.752 484.462, 368.288 490.001, 368.594 493.057 L 369.152 498.614 364.628 501.473 C 356.535 506.589, 356.136 513.501, 363.752 516.657 C 368.574 518.655, 368.398 518.330, 366.574 521.857 C 363.096 528.582, 365.445 533.341, 373.562 536.021 C 375.453 536.645, 377.070 537.458, 377.157 537.828 C 377.243 538.197, 377.427 539.625, 377.567 541 C 378.292 548.155, 380.952 558.464, 382.681 560.824 C 383.760 562.296, 386.185 564.319, 388.071 565.319 C 391.254 567.008, 393.956 567.100, 425.790 566.604 C 444.649 566.309, 460.399 565.874, 460.790 565.636 C 461.887 564.968, 522.340 563.483, 542.195 563.637 C 569.334 563.847, 580.585 567.343, 584.818 576.882 C 587.203 582.256, 586.850 600.600, 584.096 614.337 C 581.291 628.332, 571.860 660.893, 567.420 671.914 C 559.011 692.790, 540.878 720.747, 518.396 747.500 C 498.975 770.612, 458.019 807.675, 424.500 832.471 C 415.733 838.957, 408 846.182, 408 847.888 C 408 848.487, 409.800 849.264, 412 849.616 C 414.200 849.968, 416 850.696, 416 851.235 C 416 851.773, 416.641 851.968, 417.425 851.667 C 418.208 851.367, 424.171 851.727, 430.675 852.467 C 457.722 855.548, 492.967 857.100, 510.359 855.977 C 518.137 855.474, 529 854.825, 534.500 854.533 C 540 854.241, 545.625 853.800, 547 853.552 C 549.466 853.107, 557.698 852.178, 565.500 851.464 C 572.867 850.789, 602.367 844.277, 614.938 840.551 C 628.523 836.523, 655.276 827.278, 664 823.596 C 667.025 822.319, 674.225 819.317, 680 816.925 C 702.765 807.495, 729.304 792.453, 736.723 784.777 L 739.889 781.500 723.695 767.752 C 697.139 745.210, 685.591 733.177, 674.691 716.693 C 661.024 696.025, 649.914 665.226, 647.139 640.319 C 645.915 629.328, 646.430 602.691, 648.015 595 C 648.639 591.975, 649.366 588.150, 649.631 586.500 C 649.896 584.850, 651.915 577.720, 654.117 570.655 C 658.670 556.049, 666.365 540.365, 674.478 529.157 C 680.135 521.341, 681.208 520.048, 692.832 507.036 C 696.499 502.931, 701.300 497.531, 703.500 495.036 C 705.699 492.541, 711.806 485.775, 717.070 480 C 733.599 461.867, 747.403 441.969, 761.319 416.215 C 766.625 406.396, 777 384.791, 777 383.562 C 777 383.241, 777.866 381.071, 778.925 378.739 C 784.492 366.484, 791.906 340.980, 795.273 322.500 C 798.253 306.149, 798.484 267.661, 795.690 253 C 790.785 227.263, 783.659 209.166, 769.630 186.818 C 765.983 181.009, 763 176.028, 763 175.748 C 763 174.918, 773.034 170.306, 779.500 168.164 C 782.800 167.071, 788.875 164.952, 793 163.454 C 829.388 150.245, 872.109 135.864, 878.500 134.673 C 879.600 134.468, 881.175 134.027, 882 133.693 C 883.787 132.969, 894.261 130.334, 898.500 129.543 C 926.818 124.255, 940.904 124.841, 948.988 131.644 C 953.506 135.445, 955 139.070, 955 146.228 C 955 156.050, 951.224 165.797, 935.522 196.500 C 927.647 211.900, 918.563 229.675, 915.336 236 C 912.109 242.325, 907.054 252.675, 904.103 259 C 901.151 265.325, 898.083 271.850, 897.284 273.500 C 892.829 282.700, 882.916 311.751, 880.052 324 C 878.830 329.225, 877.572 334.175, 877.256 335 C 876.941 335.825, 876.747 336.818, 876.827 337.206 C 876.906 337.594, 876.259 341.644, 875.389 346.206 C 872.895 359.289, 872.358 396.614, 874.433 412.642 C 877.512 436.421, 880.991 450.989, 887.549 467.570 C 895.395 487.408, 901.643 496.461, 919.646 514.080 C 926.716 520.998, 935.990 529.230, 940.255 532.373 C 952.924 541.707, 972.119 550.891, 989.500 555.935 C 1004.599 560.317, 1037.429 564.671, 1047.209 563.589 C 1050.669 563.206, 1055.525 562.739, 1058 562.550 C 1078.863 560.959, 1101.307 554.457, 1116.339 545.647 C 1131.501 536.762, 1148.453 521.332, 1165.738 500.685 C 1178.730 485.166, 1192.815 458.055, 1199.537 435.626 C 1206.009 414.032, 1208.556 386.063, 1205.579 369.263 C 1200.460 340.363, 1188.853 321.649, 1170 311.897 C 1164.009 308.798, 1149.335 308.534, 1141 311.375 C 1117.806 319.280, 1094.273 338.056, 1072.535 366 C 1067.615 372.325, 1063.310 377.725, 1062.968 378 C 1061.369 379.286, 1042.282 409.078, 1034.535 422.379 C 1025.807 437.365, 1014.861 458.453, 1013.503 462.899 C 1012.798 465.208, 1012.917 465.275, 1016.635 464.679 C 1021.904 463.833, 1038.057 455.465, 1061.719 441.323 L 1081.500 429.500 1089.573 429.500 C 1096.523 429.500, 1098.149 429.844, 1101.257 431.974 C 1111.788 439.190, 1111.610 455.811, 1100.770 477.500 C 1090.028 498.991, 1075.581 508.719, 1051.671 510.561 C 1036.048 511.765, 1016.696 507.297, 1001.041 498.872 C 993.271 494.690, 968.635 474.662, 960.933 466.266 C 943.498 447.259, 933.067 430.196, 930.205 416 C 929.817 414.075, 929.531 408, 929.569 402.500 C 929.683 385.962, 935.501 371.619, 952.515 345.934 C 962.644 330.643, 968.207 323.788, 982.085 309.500 C 999.096 291.986, 1012.643 276.102, 1034.887 247.586 C 1037.424 244.333, 1042.148 238.483, 1045.384 234.586 C 1078.465 194.749, 1102.700 156.619, 1111.541 130.500 C 1118.879 108.821, 1113.387 86.599, 1095.525 65.703 C 1088.993 58.061, 1075.857 46.933, 1067.643 42.084 C 1065.365 40.738, 1063.350 39.269, 1063.167 38.819 C 1062.983 38.368, 1062.441 38, 1061.961 38 C 1061.481 38, 1058.931 36.730, 1056.294 35.179 C 1047.977 30.284, 1029.218 22.084, 1016.968 17.989 C 991.718 9.548, 966.745 6.242, 942.428 8.121" stroke="none" fill="#eb048b" fill-rule="evenodd"/></svg>